# FamiTracker text export 0.4.2

# Song information
TITLE           "NESmaker SFX"
AUTHOR          "Inverse Phase"
COPYRIGHT       "2018"

# Song comment
COMMENT ""

# Global settings
MACHINE         0
FRAMERATE       0
EXPANSION       0
VIBRATO         1
SPLIT           32

# Macros
MACRO       0   0  -1  -1   0 : 12
MACRO       0   1  -1  -1   0 : 15 12 9 6 3 0 0 0
MACRO       0   2  -1  -1   0 : 14 13 11 9 5 2 0 0
MACRO       0   3  -1  -1   0 : 0 0 0 0
MACRO       0   4  -1  -1   0 : 10 9 5 0
MACRO       0   5  -1  -1   0 : 13 13 13 13 13 13 13 13 13 13 13 13 12 12 12 11 11 10 10 9 9 8 7 7 6 6 5 4 3 1 0 0
MACRO       0   6  -1  -1   0 : 13 13 13 13 12 11 10 9 7 6 5 3 2 0 0
MACRO       0   7  -1  -1   0 : 12 11 10 9 8 6 3 0
MACRO       0   8  -1  -1   0 : 14 14 14 14 14 13 13 12 12 11 11 11 10 10 10 10 10 9 9 8 7 6 5 3 2 0 0
MACRO       0   9  -1  -1   0 : 14 14 14 14 13 13 12 11 10 10 9 8 8 7 6 4 2
MACRO       0  10  -1  -1   0 : 14
MACRO       0  11  -1  -1   0 : 13
MACRO       0  12  -1  -1   0 : 14 14 14 14 14 14 0 0
MACRO       0  13  -1  -1   0 : 0
MACRO       0  14  -1  -1   0 : 15 12 9 6 3 0 0 0
MACRO       0  15  -1  -1   0 : 14 13 11 9 5 2 0 0
MACRO       0  16  -1  -1   0 : 0 0 0 0
MACRO       0  17  -1  -1   0 : 10 9 5 0
MACRO       0  18  -1  -1   0 : 13 13 13 13 13 13 13 13 13 13 13 13 12 12 12 11 11 10 10 9 9 8 7 7 6 6 5 4 3 1 0 0
MACRO       0  19  -1  -1   0 : 13 13 13 13 12 11 10 9 7 6 5 3 2 0 0
MACRO       0  20  -1  -1   0 : 12 11 10 9 8 6 3 0
MACRO       0  21  -1  -1   0 : 14 14 14 14 14 13 13 12 12 11 11 11 10 10 10 10 10 9 9 8 7 6 5 3 2 0 0
MACRO       0  22  -1  -1   0 : 14 14 14 14 13 13 12 11 10 10 9 8 8 7 6 4 2
MACRO       0  23  -1  -1   0 : 14
MACRO       0  24  -1  -1   0 : 13
MACRO       0  25  -1  -1   0 : 14 14 14 14 14 14 0 0
MACRO       0  26  -1  -1   0 : 0
MACRO       0  27  -1  -1   0 : 2 4 5 7 8 9 11 12 14 15
MACRO       0  28  -1  -1   0 : 15 15 15 13 9 5 1 0
MACRO       0  29  -1  -1   0 : 2 4 6 8 10 13 15
MACRO       0  30  -1  -1   0 : 15 14 14 13 13 12 12 11 11 10 10 9 9 8 8 7 7 7 6 6 5 5 4 4 3 3 2 2 1 1
MACRO       0  31   0  -1   0 : 8 9 10 11 12 12 13 14 15 15 15 15 15 14 12 11 8 6 5 3 2 1 0
MACRO       0  32  -1  -1   0 : 15 15 15 9 6 0
MACRO       0  33  -1  -1   0 : 15 15 13 10 9 7 3 0
MACRO       0  34  -1  -1   0 : 15 15 15 15 14 14 14 13 13 12 11 11 10 10 9 8 8 8 7 6 6 5 3 3 2 1 0
MACRO       0  35  -1  -1   0 : 2 4 5 7 8 9 11 12 14 15
MACRO       0  36  -1  -1   0 : 15 15 15 13 9 5 1 0
MACRO       0  37  -1  -1   0 : 2 4 6 8 10 13 15
MACRO       0  38  -1  -1   0 : 15 14 14 13 13 12 12 11 11 10 10 9 9 8 8 7 7 7 6 6 5 5 4 4 3 3 2 2 1 1
MACRO       0  39  -1  -1   0 : 15 15 14 13 8 6 5 3 1 0
MACRO       0  40  -1  -1   0 : 14 15 12 9 6 2 0
MACRO       0  41  -1  -1   0 : 5 6 7 8 10 11 12 14 14 15 15 15 14 13 12 10 8 6 4 2 0
MACRO       0  42  -1  -1   0 : 4 7 10 14 14 14 10 5 1
MACRO       0  43   9  -1   0 : 2 3 5 6 8 9 11 12 14 15
MACRO       1   0  -1  -1   0 : 0 0 0 0 0 4 4 4 4 4 4 10 10 10 10 10 10 7 6 5 4 4 4 4 3 1
MACRO       1   1   0  -1   0 : 0 0 0 0 0 0 -5 -5 -5 -5 -5 -5 -7 -7 -7 -7 -7 -7 -12 -12 -12 -12 -12
MACRO       1   2   0  -1   0 : 0 0 0 0 0 0 -5 -5 -5 -5 -5 -5 -6 -6 -6 -6 -6 -6 -10 -10 -10 -10 -10
MACRO       2   0  -1  -1   0 : 37 13 1 -5 -1 3 0 0
MACRO       2   1  -1  -1   0 : 50 0 0 0
MACRO       2   2  -1  -1   0 : 114 124 127 87
MACRO       2   3  -1  -1   0 : 0 0 0 0 0 0 0 0 0 0 0 0 0 0 0 0 0 0 0 0 0 0 0 0 0 0 0 0 0 0 0
MACRO       2   4  -1  -1   0 : 6 18 40 40 37 32 21 10 -3 -20 -40 -59 -59 -55 -47 -30 -11 16 54 86 108 127 124 109 79 18 -3 -65 -99 -114 -116
MACRO       2   5  -1  -1   0 : 106 111 119 123 127 127 127 127 127 118 113 101 89 74 60 45 32 21 10 5 1 -3 -1 -1
MACRO       2   6  -1  -1   0 : 37 13 1 -5 -1 3 0 0
MACRO       2   7  -1  -1   0 : 50 0 0 0
MACRO       2   8  -1  -1   0 : 114 124 127 87
MACRO       2   9  -1  -1   0 : 0 0 0 0 0 0 0 0 0 0 0 0 0 0 0 0 0 0 0 0 0 0 0 0 0 0 0 0 0 0 0
MACRO       2  10  -1  -1   0 : 6 18 40 40 37 32 21 10 -3 -20 -40 -59 -59 -55 -47 -30 -11 16 54 86 108 127 124 109 79 18 -3 -65 -99 -114 -116
MACRO       2  11  -1  -1   0 : 106 111 119 123 127 127 127 127 127 118 113 101 89 74 60 45 32 21 10 5 1 -3 -1 -1
MACRO       2  12   0  -1   0 : 42
MACRO       2  13  -1  -1   0 : 104
MACRO       3   0  -1  -1   0 : 111
MACRO       4   0  -1  -1   0 : 2
MACRO       4   1  -1  -1   0 : 1
MACRO       4   2  -1  -1   0 : 2
MACRO       4   3  -1  -1   0 : 2
MACRO       4   4  -1  -1   0 : 2
MACRO       4   5  -1  -1   0 : 0
MACRO       4   6  -1  -1   0 : 1
MACRO       4   7  -1  -1   0 : 1
MACRO       4   8  -1  -1   0 : 2
MACRO       4   9  -1  -1   0 : 2
MACRO       4  10  -1  -1   0 : 2
MACRO       4  11  -1  -1   0 : 2
MACRO       4  12  -1  -1   0 : 0
MACRO       4  13  -1  -1   0 : 1
MACRO       4  14  -1  -1   0 : 1
MACRO       4  15  -1  -1   0 : 2
MACRO       4  16  -1  -1   0 : 2
MACRO       4  17   0  -1   0 : 3 3 1 1
MACRO       4  18  -1  -1   0 : 2
MACRO       4  19  -1  -1   0 : 2
MACRO       4  20  -1  -1   0 : 2
MACRO       4  21  -1  -1   0 : 1
MACRO       4  22  -1  -1   0 : 3
MACRO       4  23  -1  -1   0 : 0

# DPCM samples

# Instruments
INST2A03   0     0  -1  -1  -1   0 "tinny"
INST2A03   1     0  -1  -1  -1   0 "reglead"
INST2A03   2     0  -1  -1  -1   0 "fat"
INST2A03   3     0  -1  -1  -1  -1 "stahp"
INST2A03   4     0  -1  -1  -1   1 "buzznoise"
INST2A03   5     1  -1  -1  -1  -1 "Kick"
INST2A03   6     2  -1   0  -1  -1 "Snare"
INST2A03   7     4  -1   2  -1  -1 "hiHat"
INST2A03   8     5  -1  -1  -1   3 "Melody"
INST2A03   9     5  -1  -1  -1   4 "MelodyTrail"
INST2A03  10     6  -1  -1  -1   6 "ClavvyArp"
INST2A03  11     7  -1  -1  -1   7 "ClavvyArp_Stic"
INST2A03  12     8  -1   4  -1   8 "PitchChirp"
INST2A03  13     9  -1   5  -1   8 "Thump"
INST2A03  14    10  -1  -1  -1  -1 "LongBassNote"
INST2A03  15    12  -1  -1  -1  -1 "TightBassNote"
INST2A03  16    13  -1  -1  -1  -1 "stopSound"
INST2A03  17    14  -1  -1  -1  -1 "Kick"
INST2A03  18    15  -1   6  -1  -1 "Snare"
INST2A03  19    17  -1   8  -1  -1 "hiHat"
INST2A03  20    18  -1  -1  -1  10 "Melody"
INST2A03  21    18  -1  -1  -1  11 "MelodyTrail"
INST2A03  22    19  -1  -1  -1  13 "ClavvyArp"
INST2A03  23    20  -1  -1  -1  14 "ClavvyArp_Stic"
INST2A03  24    21  -1  10  -1  15 "PitchChirp"
INST2A03  25    22  -1  11  -1  15 "Thump"
INST2A03  26    23  -1  -1  -1  -1 "LongBassNote"
INST2A03  27    25  -1  -1  -1  -1 "TightBassNote"
INST2A03  28    26  -1  -1  -1  -1 "stopSound"
INST2A03  29    -1  -1  -1  -1  -1 "empty"
INST2A03  30    27  -1  -1  -1  16 "swell 1"
INST2A03  31    28  -1  -1  -1  -1 "bass drum"
INST2A03  32    29  -1  -1  -1  -1 "high hat swell"
INST2A03  33    30  -1  -1  -1  -1 "intro chop"
INST2A03  34    -1  -1  -1  -1  -1 "empty"
INST2A03  35    34  -1  12  -1  18 "bend 1"
INST2A03  36    -1  -1  -1  -1  19 "soft melody tone"
INST2A03  37    32  -1  -1  -1  -1 "bass staccato"
INST2A03  38    32  -1  -1  -1  -1 "high hat"
INST2A03  39    33  -1  -1  -1  -1 "bass drum"
INST2A03  40     0  -1  -1  -1  -1 "snare drum"
INST2A03  41    -1  -1  -1  -1  -1 "empty"
INST2A03  42    35  -1  -1  -1  20 "swell 1"
INST2A03  43    36  -1  -1  -1  -1 "bass drum"
INST2A03  44    37  -1  -1  -1  -1 "high hat swell"
INST2A03  45    38  -1  -1  -1  -1 "intro chop"
INST2A03  46    -1  -1  -1  -1  -1 "empty"
INST2A03  47    39  -1  -1  -1  -1 "snare"
INST2A03  48    40  -1  -1  -1  -1 "high_hat"
INST2A03  49    41  -1  -1  -1  21 "soft melody"
INST2A03  50    42  -1  -1  -1  22 "quick stair fade"
INST2A03  51    43  -1  -1  -1  -1 "drum slide fade-in"

# Tracks

TRACK  64   9 150 "StartSong"
COLUMNS : 1 1 1 1 1

ORDER 00 : 00 00 00 00 00

PATTERN 00
ROW 00 : A-2 09 . ... : A-3 0A . ... : A-2 0E . ... : 8-# 06 . ... : ... .. . ...
ROW 01 : ... .. . ... : ... .. . ... : ... .. . ... : ... .. . ... : ... .. . ...
ROW 02 : ... .. . ... : C-4 0A . ... : ... .. . ... : ... .. . ... : ... .. . ...
ROW 03 : ... .. . ... : ... .. . ... : ... .. . ... : ... .. . ... : ... .. . ...
ROW 04 : ... .. . ... : E-4 0A . ... : --- .. . ... : ... .. . ... : ... .. . ...
ROW 05 : ... .. . ... : ... .. . ... : ... .. . ... : ... .. . ... : ... .. . ...
ROW 06 : B-2 09 . ... : C-4 0A . ... : A-2 0E . ... : 8-# 06 . ... : ... .. . ...
ROW 07 : ... .. . ... : ... .. . ... : --- .. . ... : 8-# 06 . ... : ... .. . ...
ROW 08 : ... .. . ... : A-3 0A . ... : A-2 0E . ... : 8-# 06 . ... : ... .. . ...
ROW 09 : ... .. . ... : ... .. . ... : ... .. . ... : ... .. . ... : ... .. . ...
ROW 0A : C-3 09 . ... : C-4 0A . ... : ... .. . ... : ... .. . ... : ... .. . ...
ROW 0B : ... .. . ... : ... .. . ... : ... .. . ... : ... .. . ... : ... .. . ...
ROW 0C : ... .. . ... : E-4 0A . ... : --- .. . ... : ... .. . ... : ... .. . ...
ROW 0D : ... .. . ... : ... .. . ... : ... .. . ... : ... .. . ... : ... .. . ...
ROW 0E : D-3 09 . ... : C-4 0A . ... : ... .. . ... : ... .. . ... : ... .. . ...
ROW 0F : E-3 09 . ... : ... .. . ... : ... .. . ... : ... .. . ... : ... .. . ...
ROW 10 : F-3 09 . ... : A-3 0A . ... : F-2 0E . ... : 8-# 06 . ... : ... .. . ...
ROW 11 : ... .. . ... : ... .. . ... : ... .. . ... : ... .. . ... : ... .. . ...
ROW 12 : ... .. . ... : C-4 0A . ... : ... .. . ... : ... .. . ... : ... .. . ...
ROW 13 : ... .. . ... : ... .. . ... : ... .. . ... : ... .. . ... : ... .. . ...
ROW 14 : ... .. . ... : F-4 0A . ... : --- .. . ... : ... .. . ... : ... .. . ...
ROW 15 : ... .. . ... : ... .. . ... : ... .. . ... : ... .. . ... : ... .. . ...
ROW 16 : ... .. . ... : C-4 0A . ... : F-2 0E . ... : 8-# 06 . ... : ... .. . ...
ROW 17 : ... .. . ... : ... .. . ... : --- .. . ... : ... .. . ... : ... .. . ...
ROW 18 : ... .. . ... : A-3 0A . ... : F-2 0E . ... : ... .. . ... : ... .. . ...
ROW 19 : ... .. . ... : ... .. . ... : ... .. . ... : ... .. . ... : ... .. . ...
ROW 1A : ... .. . ... : C-4 0A . ... : ... .. . ... : 8-# 06 . ... : ... .. . ...
ROW 1B : ... .. . ... : ... .. . ... : ... .. . ... : ... .. . ... : ... .. . ...
ROW 1C : ... .. . ... : F-4 0A . ... : --- .. . ... : ... .. . ... : ... .. . ...
ROW 1D : ... .. . ... : ... .. . ... : ... .. . ... : ... .. . ... : ... .. . ...
ROW 1E : ... .. . ... : C-4 0A . ... : ... .. . ... : ... .. . ... : ... .. . ...
ROW 1F : ... .. . ... : ... .. . ... : ... .. . ... : ... .. . ... : ... .. . ...
ROW 20 : F#3 09 . ... : A-3 0A . ... : F#2 0E . ... : 8-# 06 . ... : ... .. . ...
ROW 21 : ... .. . ... : ... .. . ... : ... .. . ... : ... .. . ... : ... .. . ...
ROW 22 : ... .. . ... : C-4 0A . ... : ... .. . ... : ... .. . ... : ... .. . ...
ROW 23 : ... .. . ... : ... .. . ... : ... .. . ... : ... .. . ... : ... .. . ...
ROW 24 : ... .. . ... : F#4 0A . ... : --- .. . ... : ... .. . ... : ... .. . ...
ROW 25 : ... .. . ... : ... .. . ... : ... .. . ... : ... .. . ... : ... .. . ...
ROW 26 : E-3 09 . ... : C-4 0A . ... : F#2 0E . ... : 8-# 06 . ... : ... .. . ...
ROW 27 : ... .. . ... : ... .. . ... : --- .. . ... : 8-# 06 . ... : ... .. . ...
ROW 28 : ... .. . ... : A-3 0A . ... : F#2 0E . ... : 8-# 06 . ... : ... .. . ...
ROW 29 : ... .. . ... : ... .. . ... : ... .. . ... : ... .. . ... : ... .. . ...
ROW 2A : D-3 09 . ... : C-4 0A . ... : ... .. . ... : ... .. . ... : ... .. . ...
ROW 2B : ... .. . ... : ... .. . ... : ... .. . ... : ... .. . ... : ... .. . ...
ROW 2C : ... .. . ... : F#4 0A . ... : --- .. . ... : ... .. . ... : ... .. . ...
ROW 2D : ... .. . ... : ... .. . ... : ... .. . ... : ... .. . ... : ... .. . ...
ROW 2E : ... .. . ... : C-4 0A . ... : ... .. . ... : ... .. . ... : ... .. . ...
ROW 2F : ... .. . ... : ... .. . ... : ... .. . ... : ... .. . ... : ... .. . ...
ROW 30 : F-3 09 . ... : A-3 0A . ... : F-2 0E . ... : 8-# 06 . ... : ... .. . ...
ROW 31 : ... .. . ... : ... .. . ... : ... .. . ... : ... .. . ... : ... .. . ...
ROW 32 : ... .. . ... : C-4 0A . ... : ... .. . ... : ... .. . ... : ... .. . ...
ROW 33 : ... .. . ... : ... .. . ... : ... .. . ... : ... .. . ... : ... .. . ...
ROW 34 : E-3 09 . ... : F-4 0A . ... : --- .. . ... : ... .. . ... : ... .. . ...
ROW 35 : ... .. . ... : ... .. . ... : ... .. . ... : ... .. . ... : ... .. . ...
ROW 36 : D-3 09 . ... : C-4 0A . ... : F-2 0E . ... : 8-# 06 . ... : ... .. . ...
ROW 37 : ... .. . ... : ... .. . ... : --- .. . ... : ... .. . ... : ... .. . ...
ROW 38 : E-3 09 . ... : A-3 0A . ... : C-3 0E . ... : ... .. . ... : ... .. . ...
ROW 39 : ... .. . ... : ... .. . ... : ... .. . ... : ... .. . ... : ... .. . ...
ROW 3A : D-3 09 . ... : C-4 0A . ... : ... .. . ... : 8-# 06 . ... : ... .. . ...
ROW 3B : ... .. . ... : ... .. . ... : ... .. . ... : ... .. . ... : ... .. . ...
ROW 3C : C-3 09 . ... : D-4 0A . ... : B-2 0E . ... : ... .. . ... : ... .. . ...
ROW 3D : ... .. . ... : ... .. . ... : ... .. . ... : ... .. . ... : ... .. . ...
ROW 3E : B-2 09 . ... : G-4 0A . ... : ... .. . ... : 8-# 06 . ... : ... .. . ...
ROW 3F : ... .. . ... : ... .. . ... : ... .. . ... : 8-# 06 . ... : ... .. . ...

TRACK  64   6 150 "MainSong"
COLUMNS : 1 1 1 1 1

ORDER 00 : 00 00 00 00 00

PATTERN 00
ROW 00 : A-2 09 . ... : C-4 0A . ... : A-2 0E . ... : 0-# 05 . ... : ... .. . ...
ROW 01 : ... .. . ... : ... .. . ... : ... .. . ... : ... .. . ... : ... .. . ...
ROW 02 : ... .. . ... : ... .. . ... : ... .. . ... : A-# 07 . ... : ... .. . ...
ROW 03 : ... .. . ... : ... .. . ... : ... .. . ... : ... .. . ... : ... .. . ...
ROW 04 : ... .. . ... : A-4 0A . ... : --- .. . ... : 3-# 05 . ... : ... .. . ...
ROW 05 : ... .. . ... : E-4 0A . ... : ... .. . ... : ... .. . ... : ... .. . ...
ROW 06 : B-2 09 . ... : C-4 0A . ... : A-2 0E . ... : 0-# 05 . ... : ... .. . ...
ROW 07 : ... .. . ... : ... .. . ... : --- .. . ... : ... .. . ... : ... .. . ...
ROW 08 : ... .. . ... : E-4 0A . ... : A-2 0E . ... : A-# 07 . ... : ... .. . ...
ROW 09 : ... .. . ... : ... .. . ... : ... .. . ... : ... .. . ... : ... .. . ...
ROW 0A : C-3 09 . ... : ... .. . ... : ... .. . ... : 0-# 05 . ... : ... .. . ...
ROW 0B : ... .. . ... : ... .. . ... : ... .. . ... : ... .. . ... : ... .. . ...
ROW 0C : ... .. . ... : ... .. . ... : --- .. . ... : 4-# 05 . ... : ... .. . ...
ROW 0D : ... .. . ... : ... .. . ... : ... .. . ... : ... .. . ... : ... .. . ...
ROW 0E : D-3 09 . ... : ... .. . ... : ... .. . ... : A-# 07 . ... : ... .. . ...
ROW 0F : E-3 09 . ... : ... .. . ... : ... .. . ... : ... .. . ... : ... .. . ...
ROW 10 : F-3 09 . ... : ... .. . ... : F-2 0E . ... : 0-# 05 . ... : ... .. . ...
ROW 11 : ... .. . ... : ... .. . ... : ... .. . ... : ... .. . ... : ... .. . ...
ROW 12 : ... .. . ... : ... .. . ... : ... .. . ... : A-# 07 . ... : ... .. . ...
ROW 13 : ... .. . ... : ... .. . ... : ... .. . ... : ... .. . ... : ... .. . ...
ROW 14 : ... .. . ... : C-5 0A . ... : --- .. . ... : 3-# 05 . ... : ... .. . ...
ROW 15 : ... .. . ... : A-4 0A . ... : ... .. . ... : ... .. . ... : ... .. . ...
ROW 16 : ... .. . ... : F-4 0A . ... : F-2 0E . ... : 0-# 05 . ... : ... .. . ...
ROW 17 : ... .. . ... : ... .. . ... : --- .. . ... : ... .. . ... : ... .. . ...
ROW 18 : ... .. . ... : A-4 0A . ... : F-2 0E . ... : A-# 07 . ... : ... .. . ...
ROW 19 : ... .. . ... : ... .. . ... : ... .. . ... : ... .. . ... : ... .. . ...
ROW 1A : ... .. . ... : F-4 0A . ... : ... .. . ... : 0-# 05 . ... : ... .. . ...
ROW 1B : ... .. . ... : ... .. . ... : ... .. . ... : ... .. . ... : ... .. . ...
ROW 1C : ... .. . ... : C-4 0A . ... : --- .. . ... : 4-# 05 . ... : ... .. . ...
ROW 1D : ... .. . ... : D-4 0A . ... : ... .. . ... : ... .. . ... : ... .. . ...
ROW 1E : ... .. . ... : E-4 0A . ... : ... .. . ... : A-# 07 . ... : ... .. . ...
ROW 1F : ... .. . ... : F-4 0A . ... : ... .. . ... : ... .. . ... : ... .. . ...
ROW 20 : F#3 09 . ... : D-4 0A . ... : F#2 0E . ... : 0-# 05 . ... : ... .. . ...
ROW 21 : ... .. . ... : A-3 0A . ... : ... .. . ... : ... .. . ... : ... .. . ...
ROW 22 : ... .. . ... : F#3 0A . ... : ... .. . ... : A-# 07 . ... : ... .. . ...
ROW 23 : ... .. . ... : ... .. . ... : ... .. . ... : ... .. . ... : ... .. . ...
ROW 24 : ... .. . ... : ... .. . ... : --- .. . ... : 3-# 05 . ... : ... .. . ...
ROW 25 : ... .. . ... : ... .. . ... : ... .. . ... : ... .. . ... : ... .. . ...
ROW 26 : E-3 09 . ... : ... .. . ... : F#2 0E . ... : 0-# 05 . ... : ... .. . ...
ROW 27 : ... .. . ... : ... .. . ... : --- .. . ... : ... .. . ... : ... .. . ...
ROW 28 : ... .. . ... : ... .. . ... : F#2 0E . ... : A-# 07 . ... : ... .. . ...
ROW 29 : ... .. . ... : ... .. . ... : ... .. . ... : ... .. . ... : ... .. . ...
ROW 2A : D-3 09 . ... : ... .. . ... : ... .. . ... : 0-# 05 . ... : ... .. . ...
ROW 2B : ... .. . ... : ... .. . ... : ... .. . ... : ... .. . ... : ... .. . ...
ROW 2C : ... .. . ... : A-3 0A . ... : --- .. . ... : 4-# 05 . ... : ... .. . ...
ROW 2D : ... .. . ... : F#3 0A . ... : ... .. . ... : ... .. . ... : ... .. . ...
ROW 2E : ... .. . ... : D-3 0A . ... : ... .. . ... : A-# 07 . ... : ... .. . ...
ROW 2F : ... .. . ... : ... .. . ... : ... .. . ... : ... .. . ... : ... .. . ...
ROW 30 : F-3 09 . ... : C-4 0A . ... : F-2 0E . ... : 0-# 05 . ... : ... .. . ...
ROW 31 : ... .. . ... : A-3 0A . ... : ... .. . ... : ... .. . ... : ... .. . ...
ROW 32 : ... .. . ... : F-3 0A . ... : ... .. . ... : A-# 07 . ... : ... .. . ...
ROW 33 : ... .. . ... : ... .. . ... : ... .. . ... : ... .. . ... : ... .. . ...
ROW 34 : E-3 09 . ... : ... .. . ... : --- .. . ... : 3-# 05 . ... : ... .. . ...
ROW 35 : ... .. . ... : ... .. . ... : ... .. . ... : ... .. . ... : ... .. . ...
ROW 36 : D-3 09 . ... : ... .. . ... : F-2 0E . ... : 0-# 05 . ... : ... .. . ...
ROW 37 : ... .. . ... : ... .. . ... : --- .. . ... : ... .. . ... : ... .. . ...
ROW 38 : E-3 09 . ... : ... .. . ... : C-3 0E . ... : A-# 07 . ... : ... .. . ...
ROW 39 : ... .. . ... : ... .. . ... : ... .. . ... : ... .. . ... : ... .. . ...
ROW 3A : D-3 09 . ... : ... .. . ... : ... .. . ... : 0-# 05 . ... : ... .. . ...
ROW 3B : ... .. . ... : ... .. . ... : ... .. . ... : ... .. . ... : ... .. . ...
ROW 3C : C-3 09 . ... : G-3 0A . ... : B-2 0E . ... : 4-# 05 . ... : ... .. . ...
ROW 3D : ... .. . ... : B-3 0A . ... : ... .. . ... : ... .. . ... : ... .. . ...
ROW 3E : B-2 09 . ... : D-4 0A . ... : ... .. . ... : A-# 07 . ... : ... .. . ...
ROW 3F : ... .. . ... : G-4 0A . ... : ... .. . ... : ... .. . ... : ... .. . ...

TRACK  64   8 150 "EndSong"
COLUMNS : 1 1 1 1 1

ORDER 00 : 00 00 00 00 00

PATTERN 00
ROW 00 : A-2 15 . ... : ... .. . ... : F-3 1A . ... : ... .. . ... : ... .. . ...
ROW 01 : ... .. . ... : ... .. . ... : ... .. . ... : ... .. . ... : ... .. . ...
ROW 02 : ... .. . ... : ... .. . ... : ... .. . ... : ... .. . ... : ... .. . ...
ROW 03 : ... .. . ... : ... .. . ... : ... .. . ... : ... .. . ... : ... .. . ...
ROW 04 : ... .. . ... : ... .. . ... : ... .. . ... : ... .. . ... : ... .. . ...
ROW 05 : ... .. . ... : ... .. . ... : ... .. . ... : ... .. . ... : ... .. . ...
ROW 06 : B-2 15 . ... : ... .. . ... : ... .. . ... : ... .. . ... : ... .. . ...
ROW 07 : ... .. . ... : ... .. . ... : ... .. . ... : ... .. . ... : ... .. . ...
ROW 08 : ... .. . ... : ... .. . ... : ... .. . ... : ... .. . ... : ... .. . ...
ROW 09 : ... .. . ... : ... .. . ... : ... .. . ... : ... .. . ... : ... .. . ...
ROW 0A : C-3 15 . ... : ... .. . ... : ... .. . ... : ... .. . ... : ... .. . ...
ROW 0B : ... .. . ... : ... .. . ... : ... .. . ... : ... .. . ... : ... .. . ...
ROW 0C : ... .. . ... : ... .. . ... : ... .. . ... : ... .. . ... : ... .. . ...
ROW 0D : ... .. . ... : ... .. . ... : ... .. . ... : ... .. . ... : ... .. . ...
ROW 0E : D-3 15 . ... : ... .. . ... : ... .. . ... : ... .. . ... : ... .. . ...
ROW 0F : E-3 15 . ... : ... .. . ... : ... .. . ... : ... .. . ... : ... .. . ...
ROW 10 : F-3 15 . ... : ... .. . ... : D-3 1A . ... : ... .. . ... : ... .. . ...
ROW 11 : ... .. . ... : ... .. . ... : ... .. . ... : ... .. . ... : ... .. . ...
ROW 12 : ... .. . ... : ... .. . ... : ... .. . ... : ... .. . ... : ... .. . ...
ROW 13 : ... .. . ... : ... .. . ... : ... .. . ... : ... .. . ... : ... .. . ...
ROW 14 : ... .. . ... : ... .. . ... : ... .. . ... : ... .. . ... : ... .. . ...
ROW 15 : ... .. . ... : ... .. . ... : ... .. . ... : ... .. . ... : ... .. . ...
ROW 16 : ... .. . ... : ... .. . ... : ... .. . ... : ... .. . ... : ... .. . ...
ROW 17 : ... .. . ... : ... .. . ... : ... .. . ... : ... .. . ... : ... .. . ...
ROW 18 : F-3 15 . ... : A-3 15 . ... : ... .. . ... : ... .. . ... : ... .. . ...
ROW 19 : ... .. . ... : ... .. . ... : ... .. . ... : ... .. . ... : ... .. . ...
ROW 1A : E-3 15 . ... : G-3 15 . ... : ... .. . ... : ... .. . ... : ... .. . ...
ROW 1B : ... .. . ... : ... .. . ... : ... .. . ... : ... .. . ... : ... .. . ...
ROW 1C : D-3 15 . ... : F-3 15 . ... : ... .. . ... : ... .. . ... : ... .. . ...
ROW 1D : ... .. . ... : ... .. . ... : ... .. . ... : ... .. . ... : ... .. . ...
ROW 1E : C-3 15 . ... : E-3 15 . ... : ... .. . ... : ... .. . ... : ... .. . ...
ROW 1F : ... .. . ... : ... .. . ... : ... .. . ... : ... .. . ... : ... .. . ...
ROW 20 : E-3 15 . ... : G-3 15 . ... : C-3 1A . ... : ... .. . ... : ... .. . ...
ROW 21 : ... .. . ... : ... .. . ... : ... .. . ... : ... .. . ... : ... .. . ...
ROW 22 : ... .. . ... : ... .. . ... : ... .. . ... : ... .. . ... : ... .. . ...
ROW 23 : ... .. . ... : ... .. . ... : ... .. . ... : ... .. . ... : ... .. . ...
ROW 24 : ... .. . ... : ... .. . ... : ... .. . ... : ... .. . ... : ... .. . ...
ROW 25 : ... .. . ... : ... .. . ... : ... .. . ... : ... .. . ... : ... .. . ...
ROW 26 : ... .. . ... : ... .. . ... : ... .. . ... : ... .. . ... : ... .. . ...
ROW 27 : ... .. . ... : ... .. . ... : ... .. . ... : ... .. . ... : ... .. . ...
ROW 28 : F-3 15 . ... : A-3 15 . ... : ... .. . ... : ... .. . ... : ... .. . ...
ROW 29 : ... .. . ... : ... .. . ... : ... .. . ... : ... .. . ... : ... .. . ...
ROW 2A : E-3 15 . ... : G-3 15 . ... : ... .. . ... : ... .. . ... : ... .. . ...
ROW 2B : ... .. . ... : ... .. . ... : ... .. . ... : ... .. . ... : ... .. . ...
ROW 2C : D-3 15 . ... : F-3 15 . ... : ... .. . ... : ... .. . ... : ... .. . ...
ROW 2D : ... .. . ... : ... .. . ... : ... .. . ... : ... .. . ... : ... .. . ...
ROW 2E : C-3 15 . ... : E-3 15 . ... : ... .. . ... : ... .. . ... : ... .. . ...
ROW 2F : ... .. . ... : ... .. . ... : ... .. . ... : ... .. . ... : ... .. . ...
ROW 30 : G-2 15 . ... : D-3 15 . ... : B-2 1A . ... : ... .. . ... : ... .. . ...
ROW 31 : ... .. . ... : ... .. . ... : ... .. . ... : ... .. . ... : ... .. . ...
ROW 32 : ... .. . ... : ... .. . ... : ... .. . ... : ... .. . ... : ... .. . ...
ROW 33 : ... .. . ... : ... .. . ... : ... .. . ... : ... .. . ... : ... .. . ...
ROW 34 : ... .. . ... : ... .. . ... : ... .. . ... : ... .. . ... : ... .. . ...
ROW 35 : ... .. . ... : ... .. . ... : ... .. . ... : ... .. . ... : ... .. . ...
ROW 36 : ... .. . ... : ... .. . ... : ... .. . ... : ... .. . ... : ... .. . ...
ROW 37 : ... .. . ... : ... .. . ... : ... .. . ... : ... .. . ... : ... .. . ...
ROW 38 : D-3 15 . ... : B-3 15 . ... : G-2 1A . ... : ... .. . ... : ... .. . ...
ROW 39 : ... .. . ... : ... .. . ... : ... .. . ... : ... .. . ... : ... .. . ...
ROW 3A : ... .. . ... : ... .. . ... : ... .. . ... : ... .. . ... : ... .. . ...
ROW 3B : C-4 15 . ... : ... .. . ... : ... .. . ... : ... .. . ... : ... .. . ...
ROW 3C : ... .. . ... : ... .. . ... : ... .. . ... : ... .. . ... : ... .. . ...
ROW 3D : ... .. . ... : ... .. . ... : ... .. . ... : ... .. . ... : ... .. . ...
ROW 3E : B-3 15 . ... : ... .. . ... : ... .. . ... : ... .. . ... : ... .. . ...
ROW 3F : ... .. . ... : ... .. . ... : ... .. . ... : ... .. . ... : ... .. . ...

TRACK   8   2 150 "sfx_coin"
COLUMNS : 1 1 1 1 1

ORDER 00 : 00 00 00 00 00

PATTERN 00
ROW 00 : ... .. . ... : A-4 02 F V02 : ... .. . ... : ... .. . ... : ... .. . ...
ROW 01 : ... .. . ... : ... .. A ... : ... .. . ... : ... .. . ... : ... .. . ...
ROW 02 : ... .. . ... : A-5 02 F ... : ... .. . ... : ... .. . ... : ... .. . ...
ROW 03 : ... .. . ... : ... .. C ... : ... .. . ... : ... .. . ... : ... .. . ...
ROW 04 : ... .. . ... : ... .. A ... : ... .. . ... : ... .. . ... : ... .. . ...
ROW 05 : ... .. . ... : ... .. 8 ... : ... .. . ... : ... .. . ... : ... .. . ...
ROW 06 : ... .. . ... : ... .. 4 ... : ... .. . ... : ... .. . ... : ... .. . ...
ROW 07 : ... .. . ... : C-4 03 . ... : ... .. . ... : ... .. . ... : ... .. . ...

TRACK  10   1 150 "sfx_jump"
COLUMNS : 1 1 1 1 1

ORDER 00 : 00 00 00 00 00

PATTERN 00
ROW 00 : ... .. . ... : C-3 02 F ... : ... .. . ... : ... .. . ... : ... .. . ...
ROW 01 : ... .. . ... : D#3 02 E ... : ... .. . ... : ... .. . ... : ... .. . ...
ROW 02 : ... .. . ... : F-3 02 D ... : ... .. . ... : ... .. . ... : ... .. . ...
ROW 03 : ... .. . ... : A-3 02 C ... : ... .. . ... : ... .. . ... : ... .. . ...
ROW 04 : ... .. . ... : C-4 02 B ... : ... .. . ... : ... .. . ... : ... .. . ...
ROW 05 : ... .. . ... : D#4 02 A ... : ... .. . ... : ... .. . ... : ... .. . ...
ROW 06 : ... .. . ... : G-4 02 9 ... : ... .. . ... : ... .. . ... : ... .. . ...
ROW 07 : ... .. . ... : ... .. 8 ... : ... .. . ... : ... .. . ... : ... .. . ...
ROW 08 : ... .. . ... : C-4 03 . ... : ... .. . ... : ... .. . ... : ... .. . ...
ROW 09 : ... .. . ... : ... .. . ... : ... .. . ... : ... .. . ... : ... .. . ...

TRACK  14   2 150 "sfx_1up"
COLUMNS : 1 1 1 1 1

ORDER 00 : 00 00 00 00 00

PATTERN 00
ROW 00 : ... .. . ... : C-3 00 F ... : ... .. . ... : ... .. . ... : ... .. . ...
ROW 01 : ... .. . ... : F-3 00 F ... : ... .. . ... : ... .. . ... : ... .. . ...
ROW 02 : ... .. . ... : C-4 00 F ... : ... .. . ... : ... .. . ... : ... .. . ...
ROW 03 : ... .. . ... : F-3 00 F ... : ... .. . ... : ... .. . ... : ... .. . ...
ROW 04 : ... .. . ... : C-4 00 F ... : ... .. . ... : ... .. . ... : ... .. . ...
ROW 05 : ... .. . ... : F-4 00 F ... : ... .. . ... : ... .. . ... : ... .. . ...
ROW 06 : ... .. . ... : C-5 00 F ... : ... .. . ... : ... .. . ... : ... .. . ...
ROW 07 : ... .. . ... : F-4 00 F ... : ... .. . ... : ... .. . ... : ... .. . ...
ROW 08 : ... .. . ... : A-4 00 F ... : ... .. . ... : ... .. . ... : ... .. . ...
ROW 09 : ... .. . ... : F-5 00 F ... : ... .. . ... : ... .. . ... : ... .. . ...
ROW 0A : ... .. . ... : ... .. C ... : ... .. . ... : ... .. . ... : ... .. . ...
ROW 0B : ... .. . ... : ... .. 8 ... : ... .. . ... : ... .. . ... : ... .. . ...
ROW 0C : ... .. . ... : ... .. 4 ... : ... .. . ... : ... .. . ... : ... .. . ...
ROW 0D : ... .. . ... : C-4 03 . ... : ... .. . ... : ... .. . ... : ... .. . ...

TRACK  10   1 150 "sfx_shot"
COLUMNS : 1 1 1 1 1

ORDER 00 : 00 00 00 00 00

PATTERN 00
ROW 00 : ... .. . ... : C-2 00 F V01 : ... .. . ... : ... .. . ... : ... .. . ...
ROW 01 : ... .. . ... : G#1 02 2 ... : ... .. . ... : ... .. . ... : ... .. . ...
ROW 02 : ... .. . ... : C-4 00 F ... : ... .. . ... : ... .. . ... : ... .. . ...
ROW 03 : ... .. . ... : F#3 02 C ... : ... .. . ... : ... .. . ... : ... .. . ...
ROW 04 : ... .. . ... : D#3 02 A ... : ... .. . ... : ... .. . ... : ... .. . ...
ROW 05 : ... .. . ... : C-3 02 8 ... : ... .. . ... : ... .. . ... : ... .. . ...
ROW 06 : ... .. . ... : G#2 02 6 ... : ... .. . ... : ... .. . ... : ... .. . ...
ROW 07 : ... .. . ... : D#2 02 4 ... : ... .. . ... : ... .. . ... : ... .. . ...
ROW 08 : ... .. . ... : D-2 02 2 ... : ... .. . ... : ... .. . ... : ... .. . ...
ROW 09 : ... .. . ... : C-4 03 . ... : ... .. . ... : ... .. . ... : ... .. . ...

TRACK  13   3 150 "sfx_boom"
COLUMNS : 1 1 1 1 1

ORDER 00 : 00 00 00 00 00

PATTERN 00
ROW 00 : ... .. . ... : ... .. . ... : ... .. . ... : 0-# 00 F ... : ... .. . ...
ROW 01 : ... .. . ... : ... .. . ... : ... .. . ... : ... .. 2 ... : ... .. . ...
ROW 02 : ... .. . ... : ... .. . ... : ... .. . ... : 1-# 00 F ... : ... .. . ...
ROW 03 : ... .. . ... : ... .. . ... : ... .. . ... : ... .. 2 ... : ... .. . ...
ROW 04 : ... .. . ... : ... .. . ... : ... .. . ... : 3-# 00 F ... : ... .. . ...
ROW 05 : ... .. . ... : ... .. . ... : ... .. . ... : ... .. . ... : ... .. . ...
ROW 06 : ... .. . ... : ... .. . ... : ... .. . ... : 2-# 00 C ... : ... .. . ...
ROW 07 : ... .. . ... : ... .. . ... : ... .. . ... : ... .. . ... : ... .. . ...
ROW 08 : ... .. . ... : ... .. . ... : ... .. . ... : 3-# 00 6 ... : ... .. . ...
ROW 09 : ... .. . ... : ... .. . ... : ... .. . ... : ... .. . ... : ... .. . ...
ROW 0A : ... .. . ... : ... .. . ... : ... .. . ... : ... .. 4 ... : ... .. . ...
ROW 0B : ... .. . ... : ... .. . ... : ... .. . ... : ... .. 2 ... : ... .. . ...
ROW 0C : ... .. . ... : ... .. . ... : ... .. . ... : 0-# 03 . ... : ... .. . ...

TRACK  13   1 150 "sfx_ouch"
COLUMNS : 1 1 1 1 1

ORDER 00 : 00 00 00 00 00

PATTERN 00
ROW 00 : ... .. . ... : G-4 02 F ... : ... .. . ... : ... .. . ... : ... .. . ...
ROW 01 : ... .. . ... : F#4 02 F ... : ... .. . ... : ... .. . ... : ... .. . ...
ROW 02 : ... .. . ... : F-4 02 C ... : ... .. . ... : ... .. . ... : ... .. . ...
ROW 03 : ... .. . ... : E-4 02 C ... : ... .. . ... : ... .. . ... : ... .. . ...
ROW 04 : ... .. . ... : D#4 02 8 ... : ... .. . ... : ... .. . ... : ... .. . ...
ROW 05 : ... .. . ... : D-4 02 8 ... : ... .. . ... : ... .. . ... : ... .. . ...
ROW 06 : ... .. . ... : C#4 02 4 ... : ... .. . ... : ... .. . ... : ... .. . ...
ROW 07 : ... .. . ... : C-4 02 4 ... : ... .. . ... : ... .. . ... : ... .. . ...
ROW 08 : ... .. . ... : C-4 03 . ... : ... .. . ... : ... .. . ... : ... .. . ...
ROW 09 : ... .. . ... : ... .. . ... : ... .. . ... : ... .. . ... : ... .. . ...
ROW 0A : ... .. . ... : ... .. . ... : ... .. . ... : ... .. . ... : ... .. . ...
ROW 0B : ... .. . ... : ... .. . ... : ... .. . ... : ... .. . ... : ... .. . ...
ROW 0C : ... .. . ... : ... .. . ... : ... .. . ... : ... .. . ... : ... .. . ...

TRACK   5   2 150 "sfx_thud"
COLUMNS : 1 1 1 1 1

ORDER 00 : 00 00 00 00 00

PATTERN 00
ROW 00 : ... .. . ... : C-2 00 F 210 : ... .. . ... : ... .. . ... : ... .. . ...
ROW 01 : ... .. . ... : G-1 00 E 210 : ... .. . ... : ... .. . ... : ... .. . ...
ROW 02 : ... .. . ... : E-1 00 D 210 : ... .. . ... : ... .. . ... : ... .. . ...
ROW 03 : ... .. . ... : C-1 00 C 210 : ... .. . ... : ... .. . ... : ... .. . ...
ROW 04 : ... .. . ... : C-4 03 . ... : ... .. . ... : ... .. . ... : ... .. . ...

TRACK  14   2 150 "sfx_watr"
COLUMNS : 1 1 1 1 1

ORDER 00 : 00 00 00 00 00

PATTERN 00
ROW 00 : ... .. . ... : ... .. . ... : ... .. . ... : 0-# 00 F ... : ... .. . ...
ROW 01 : ... .. . ... : ... .. . ... : ... .. . ... : ... .. 2 ... : ... .. . ...
ROW 02 : ... .. . ... : ... .. . ... : ... .. . ... : 9-# 02 F ... : ... .. . ...
ROW 03 : ... .. . ... : ... .. . ... : ... .. . ... : B-# 02 C ... : ... .. . ...
ROW 04 : ... .. . ... : ... .. . ... : ... .. . ... : A-# 02 A ... : ... .. . ...
ROW 05 : ... .. . ... : ... .. . ... : ... .. . ... : 9-# 02 8 ... : ... .. . ...
ROW 06 : ... .. . ... : ... .. . ... : ... .. . ... : 8-# 02 7 ... : ... .. . ...
ROW 07 : ... .. . ... : ... .. . ... : ... .. . ... : A-# 02 6 ... : ... .. . ...
ROW 08 : ... .. . ... : ... .. . ... : ... .. . ... : B-# 02 5 ... : ... .. . ...
ROW 09 : ... .. . ... : ... .. . ... : ... .. . ... : ... .. 4 ... : ... .. . ...
ROW 0A : ... .. . ... : ... .. . ... : ... .. . ... : ... .. 3 ... : ... .. . ...
ROW 0B : ... .. . ... : ... .. . ... : ... .. . ... : ... .. 2 ... : ... .. . ...
ROW 0C : ... .. . ... : ... .. . ... : ... .. . ... : ... .. 1 ... : ... .. . ...
ROW 0D : ... .. . ... : ... .. . ... : ... .. . ... : 0-# 03 . ... : ... .. . ...

TRACK  14   3 150 "sfx_zap"
COLUMNS : 1 1 1 1 1

ORDER 00 : 00 00 00 00 00

PATTERN 00
ROW 00 : ... .. . ... : ... .. . ... : ... .. . ... : 5-# 04 F ... : ... .. . ...
ROW 01 : ... .. . ... : ... .. . ... : ... .. . ... : 7-# 04 F ... : ... .. . ...
ROW 02 : ... .. . ... : ... .. . ... : ... .. . ... : 9-# 04 F ... : ... .. . ...
ROW 03 : ... .. . ... : ... .. . ... : ... .. . ... : B-# 04 F ... : ... .. . ...
ROW 04 : ... .. . ... : ... .. . ... : ... .. . ... : 5-# 04 C ... : ... .. . ...
ROW 05 : ... .. . ... : ... .. . ... : ... .. . ... : 7-# 04 C ... : ... .. . ...
ROW 06 : ... .. . ... : ... .. . ... : ... .. . ... : 9-# 04 C ... : ... .. . ...
ROW 07 : ... .. . ... : ... .. . ... : ... .. . ... : B-# 04 C ... : ... .. . ...
ROW 08 : ... .. . ... : ... .. . ... : ... .. . ... : 5-# 04 8 ... : ... .. . ...
ROW 09 : ... .. . ... : ... .. . ... : ... .. . ... : 7-# 04 8 ... : ... .. . ...
ROW 0A : ... .. . ... : ... .. . ... : ... .. . ... : 9-# 04 8 ... : ... .. . ...
ROW 0B : ... .. . ... : ... .. . ... : ... .. . ... : B-# 04 8 ... : ... .. . ...
ROW 0C : ... .. . ... : ... .. . ... : ... .. . ... : 0-# 03 . ... : ... .. . ...
ROW 0D : ... .. . ... : ... .. . ... : ... .. . ... : ... .. . ... : ... .. . ...

TRACK   6   2 150 "sfx_cncl"
COLUMNS : 1 1 1 1 1

ORDER 00 : 00 00 00 00 00

PATTERN 00
ROW 00 : ... .. . ... : E-4 04 F ... : ... .. . ... : ... .. . ... : ... .. . ...
ROW 01 : ... .. . ... : ... .. 8 ... : ... .. . ... : ... .. . ... : ... .. . ...
ROW 02 : ... .. . ... : C-4 04 F ... : ... .. . ... : ... .. . ... : ... .. . ...
ROW 03 : ... .. . ... : ... .. 8 ... : ... .. . ... : ... .. . ... : ... .. . ...
ROW 04 : ... .. . ... : C-4 03 . ... : ... .. . ... : ... .. . ... : ... .. . ...
ROW 05 : ... .. . ... : ... .. . ... : ... .. . ... : ... .. . ... : ... .. . ...

TRACK   6   2 150 "sfx_ok"
COLUMNS : 1 1 1 1 1

ORDER 00 : 00 00 00 00 00

PATTERN 00
ROW 00 : ... .. . ... : D-4 04 F ... : ... .. . ... : ... .. . ... : ... .. . ...
ROW 01 : ... .. . ... : ... .. 8 ... : ... .. . ... : ... .. . ... : ... .. . ...
ROW 02 : ... .. . ... : G-4 04 F ... : ... .. . ... : ... .. . ... : ... .. . ...
ROW 03 : ... .. . ... : ... .. 8 ... : ... .. . ... : ... .. . ... : ... .. . ...
ROW 04 : ... .. . ... : C-4 03 . ... : ... .. . ... : ... .. . ... : ... .. . ...
ROW 05 : ... .. . ... : ... .. . ... : ... .. . ... : ... .. . ... : ... .. . ...

TRACK  11   3 150 "sfx_pick"
COLUMNS : 1 1 1 1 1

ORDER 00 : 00 00 00 00 00

PATTERN 00
ROW 00 : ... .. . ... : C#4 04 F ... : ... .. . ... : ... .. . ... : ... .. . ...
ROW 01 : ... .. . ... : F-4 04 F ... : ... .. . ... : ... .. . ... : ... .. . ...
ROW 02 : ... .. . ... : G#4 04 F ... : ... .. . ... : ... .. . ... : ... .. . ...
ROW 03 : ... .. . ... : C#4 04 C ... : ... .. . ... : ... .. . ... : ... .. . ...
ROW 04 : ... .. . ... : F-4 04 C ... : ... .. . ... : ... .. . ... : ... .. . ...
ROW 05 : ... .. . ... : G#4 04 C ... : ... .. . ... : ... .. . ... : ... .. . ...
ROW 06 : ... .. . ... : C#4 04 8 ... : ... .. . ... : ... .. . ... : ... .. . ...
ROW 07 : ... .. . ... : F-4 04 8 ... : ... .. . ... : ... .. . ... : ... .. . ...
ROW 08 : ... .. . ... : G#4 04 8 ... : ... .. . ... : ... .. . ... : ... .. . ...
ROW 09 : ... .. . ... : C-4 03 . ... : ... .. . ... : ... .. . ... : ... .. . ...
ROW 0A : ... .. . ... : ... .. . ... : ... .. . ... : ... .. . ... : ... .. . ...

TRACK   9   2 150 "sfx_time"
COLUMNS : 1 1 1 1 1

ORDER 00 : 00 00 00 00 00

PATTERN 00
ROW 00 : F-5 01 F ... : C-5 01 F ... : ... .. . ... : ... .. . ... : ... .. . ...
ROW 01 : G#5 01 . ... : C#5 01 . ... : ... .. . ... : ... .. . ... : ... .. . ...
ROW 02 : F-5 01 . ... : C-5 01 . ... : ... .. . ... : ... .. . ... : ... .. . ...
ROW 03 : G#5 01 . ... : C#5 01 . ... : ... .. . ... : ... .. . ... : ... .. . ...
ROW 04 : F-5 01 . ... : C-5 01 . ... : ... .. . ... : ... .. . ... : ... .. . ...
ROW 05 : G#5 01 . ... : C#5 01 . ... : ... .. . ... : ... .. . ... : ... .. . ...
ROW 06 : F-5 01 . ... : C-5 01 . ... : ... .. . ... : ... .. . ... : ... .. . ...
ROW 07 : C-4 03 . ... : C-4 03 . ... : ... .. . ... : ... .. . ... : ... .. . ...
ROW 08 : ... .. . ... : ... .. . ... : ... .. . ... : ... .. . ... : ... .. . ...

TRACK  20   4 150 "sfx_mech"
COLUMNS : 1 1 1 1 1

ORDER 00 : 00 00 00 00 00

PATTERN 00
ROW 00 : ... .. . ... : C-1 01 8 ... : ... .. . ... : 4-# 04 F ... : ... .. . ...
ROW 01 : ... .. . ... : ... .. C ... : ... .. . ... : ... .. C ... : ... .. . ...
ROW 02 : ... .. . ... : ... .. F ... : ... .. . ... : ... .. 8 ... : ... .. . ...
ROW 03 : ... .. . ... : ... .. 8 ... : ... .. . ... : ... .. F ... : ... .. . ...
ROW 04 : ... .. . ... : ... .. C ... : ... .. . ... : ... .. C ... : ... .. . ...
ROW 05 : ... .. . ... : ... .. F ... : ... .. . ... : ... .. 8 ... : ... .. . ...
ROW 06 : ... .. . ... : ... .. 8 ... : ... .. . ... : ... .. F ... : ... .. . ...
ROW 07 : ... .. . ... : ... .. C ... : ... .. . ... : ... .. C ... : ... .. . ...
ROW 08 : ... .. . ... : ... .. F ... : ... .. . ... : ... .. 8 ... : ... .. . ...
ROW 09 : ... .. . ... : ... .. 8 ... : ... .. . ... : ... .. F ... : ... .. . ...
ROW 0A : ... .. . ... : ... .. C ... : ... .. . ... : ... .. C ... : ... .. . ...
ROW 0B : ... .. . ... : ... .. F ... : ... .. . ... : ... .. 8 ... : ... .. . ...
ROW 0C : ... .. . ... : ... .. 8 ... : ... .. . ... : ... .. F ... : ... .. . ...
ROW 0D : ... .. . ... : ... .. C ... : ... .. . ... : ... .. C ... : ... .. . ...
ROW 0E : ... .. . ... : ... .. F ... : ... .. . ... : ... .. 8 ... : ... .. . ...
ROW 0F : ... .. . ... : ... .. 8 ... : ... .. . ... : ... .. F ... : ... .. . ...
ROW 10 : ... .. . ... : ... .. C ... : ... .. . ... : ... .. C ... : ... .. . ...
ROW 11 : ... .. . ... : ... .. F ... : ... .. . ... : ... .. 8 ... : ... .. . ...
ROW 12 : ... .. . ... : C-4 03 . ... : ... .. . ... : 0-# 03 . ... : ... .. . ...
ROW 13 : ... .. . ... : ... .. . ... : ... .. . ... : ... .. . ... : ... .. . ...

TRACK   6   6 150 "sfx_buzz"
COLUMNS : 1 1 1 1 1

ORDER 00 : 00 00 00 00 00

PATTERN 00
ROW 00 : ... .. . ... : E-1 04 F ... : ... .. . ... : 7-# 04 F ... : ... .. . ...
ROW 01 : ... .. . ... : ... .. . ... : ... .. . ... : ... .. . ... : ... .. . ...
ROW 02 : ... .. . ... : ... .. . ... : ... .. . ... : ... .. . ... : ... .. . ...
ROW 03 : ... .. . ... : ... .. . ... : ... .. . ... : ... .. . ... : ... .. . ...
ROW 04 : ... .. . ... : C-4 03 . ... : ... .. . ... : 0-# 03 . ... : ... .. . ...
ROW 05 : ... .. . ... : ... .. . ... : ... .. . ... : ... .. . ... : ... .. . ...

TRACK  20   2 150 "sfx_myst"
COLUMNS : 1 1 1 1 1

ORDER 00 : 00 00 00 00 00

PATTERN 00
ROW 00 : ... .. . ... : D-2 02 F F02 : ... .. . ... : ... .. . ... : ... .. . ...
ROW 01 : ... .. . ... : A-1 02 8 F01 : ... .. . ... : ... .. . ... : ... .. . ...
ROW 02 : ... .. . ... : G#2 02 F F02 : ... .. . ... : ... .. . ... : ... .. . ...
ROW 03 : ... .. . ... : D-2 02 8 F01 : ... .. . ... : ... .. . ... : ... .. . ...
ROW 04 : ... .. . ... : D-3 02 F F02 : ... .. . ... : ... .. . ... : ... .. . ...
ROW 05 : ... .. . ... : G#2 02 8 F01 : ... .. . ... : ... .. . ... : ... .. . ...
ROW 06 : ... .. . ... : F-2 02 F F02 : ... .. . ... : ... .. . ... : ... .. . ...
ROW 07 : ... .. . ... : D-3 02 8 F01 : ... .. . ... : ... .. . ... : ... .. . ...
ROW 08 : ... .. . ... : B-2 02 F F02 : ... .. . ... : ... .. . ... : ... .. . ...
ROW 09 : ... .. . ... : F-2 02 8 F01 : ... .. . ... : ... .. . ... : ... .. . ...
ROW 0A : ... .. . ... : G-3 02 F F02 : ... .. . ... : ... .. . ... : ... .. . ...
ROW 0B : ... .. . ... : B-2 02 8 F01 : ... .. . ... : ... .. . ... : ... .. . ...
ROW 0C : ... .. . ... : D-3 02 F F02 : ... .. . ... : ... .. . ... : ... .. . ...
ROW 0D : ... .. . ... : G-3 02 8 F01 : ... .. . ... : ... .. . ... : ... .. . ...
ROW 0E : ... .. . ... : F#3 02 F F02 : ... .. . ... : ... .. . ... : ... .. . ...
ROW 0F : ... .. . ... : D-3 02 8 F01 : ... .. . ... : ... .. . ... : ... .. . ...
ROW 10 : ... .. . ... : C-4 02 F F02 : ... .. . ... : ... .. . ... : ... .. . ...
ROW 11 : ... .. . ... : G#4 02 8 F01 : ... .. . ... : ... .. . ... : ... .. . ...
ROW 12 : ... .. . ... : C-4 03 . ... : ... .. . ... : ... .. . ... : ... .. . ...
ROW 13 : ... .. . ... : ... .. . ... : ... .. . ... : ... .. . ... : ... .. . ...

TRACK  18   1 150 "sfx_powr"
COLUMNS : 1 1 1 1 1

ORDER 00 : 00 00 00 00 00

PATTERN 00
ROW 00 : ... .. . ... : G-3 02 F ... : ... .. . ... : ... .. . ... : ... .. . ...
ROW 01 : ... .. . ... : C-2 02 F ... : ... .. . ... : ... .. . ... : ... .. . ...
ROW 02 : ... .. . ... : A#3 02 F ... : ... .. . ... : ... .. . ... : ... .. . ...
ROW 03 : ... .. . ... : D-2 02 F ... : ... .. . ... : ... .. . ... : ... .. . ...
ROW 04 : ... .. . ... : C-4 02 F ... : ... .. . ... : ... .. . ... : ... .. . ...
ROW 05 : ... .. . ... : E-2 02 F ... : ... .. . ... : ... .. . ... : ... .. . ...
ROW 06 : ... .. . ... : D#4 02 F ... : ... .. . ... : ... .. . ... : ... .. . ...
ROW 07 : ... .. . ... : F-2 02 F ... : ... .. . ... : ... .. . ... : ... .. . ...
ROW 08 : ... .. . ... : F-4 02 F ... : ... .. . ... : ... .. . ... : ... .. . ...
ROW 09 : ... .. . ... : G-2 02 F ... : ... .. . ... : ... .. . ... : ... .. . ...
ROW 0A : ... .. . ... : G#4 02 F ... : ... .. . ... : ... .. . ... : ... .. . ...
ROW 0B : ... .. . ... : A-2 02 F ... : ... .. . ... : ... .. . ... : ... .. . ...
ROW 0C : ... .. . ... : B-4 02 F ... : ... .. . ... : ... .. . ... : ... .. . ...
ROW 0D : ... .. . ... : B-2 02 F ... : ... .. . ... : ... .. . ... : ... .. . ...
ROW 0E : ... .. . ... : C#5 02 F ... : ... .. . ... : ... .. . ... : ... .. . ...
ROW 0F : ... .. . ... : C-3 02 F ... : ... .. . ... : ... .. . ... : ... .. . ...
ROW 10 : ... .. . ... : E-5 02 F ... : ... .. . ... : ... .. . ... : ... .. . ...
ROW 11 : ... .. . ... : C-4 03 . ... : ... .. . ... : ... .. . ... : ... .. . ...

TRACK  64   6 150 "sfx_shoot"
COLUMNS : 1 1 1 1 1

ORDER 00 : 00 00 00 00 00

PATTERN 00
ROW 00 : E-4 0C . ... : ... .. . ... : ... .. . ... : ... .. . ... : ... .. . ...
ROW 01 : D#3 1C . ... : ... .. . ... : ... .. . ... : ... .. . ... : ... .. . ...
ROW 02 : ... .. . ... : ... .. . ... : ... .. . ... : ... .. . ... : ... .. . ...
ROW 03 : ... .. . ... : ... .. . ... : ... .. . ... : ... .. . ... : ... .. . ...
ROW 04 : ... .. . ... : ... .. . ... : ... .. . ... : ... .. . ... : ... .. . ...
ROW 05 : ... .. . ... : ... .. . ... : ... .. . ... : ... .. . ... : ... .. . ...
ROW 06 : ... .. . ... : ... .. . ... : ... .. . ... : ... .. . ... : ... .. . ...
ROW 07 : ... .. . ... : ... .. . ... : ... .. . ... : ... .. . ... : ... .. . ...
ROW 08 : ... .. . ... : ... .. . ... : ... .. . ... : ... .. . ... : ... .. . ...
ROW 09 : ... .. . ... : ... .. . ... : ... .. . ... : ... .. . ... : ... .. . ...
ROW 0A : ... .. . ... : ... .. . ... : ... .. . ... : ... .. . ... : ... .. . ...
ROW 0B : ... .. . ... : ... .. . ... : ... .. . ... : ... .. . ... : ... .. . ...
ROW 0C : ... .. . ... : ... .. . ... : ... .. . ... : ... .. . ... : ... .. . ...
ROW 0D : ... .. . ... : ... .. . ... : ... .. . ... : ... .. . ... : ... .. . ...
ROW 0E : ... .. . ... : ... .. . ... : ... .. . ... : ... .. . ... : ... .. . ...
ROW 0F : ... .. . ... : ... .. . ... : ... .. . ... : ... .. . ... : ... .. . ...
ROW 10 : ... .. . ... : ... .. . ... : ... .. . ... : ... .. . ... : ... .. . ...
ROW 11 : ... .. . ... : ... .. . ... : ... .. . ... : ... .. . ... : ... .. . ...
ROW 12 : ... .. . ... : ... .. . ... : ... .. . ... : ... .. . ... : ... .. . ...
ROW 13 : ... .. . ... : ... .. . ... : ... .. . ... : ... .. . ... : ... .. . ...
ROW 14 : ... .. . ... : ... .. . ... : ... .. . ... : ... .. . ... : ... .. . ...
ROW 15 : ... .. . ... : ... .. . ... : ... .. . ... : ... .. . ... : ... .. . ...
ROW 16 : ... .. . ... : ... .. . ... : ... .. . ... : ... .. . ... : ... .. . ...
ROW 17 : ... .. . ... : ... .. . ... : ... .. . ... : ... .. . ... : ... .. . ...
ROW 18 : ... .. . ... : ... .. . ... : ... .. . ... : ... .. . ... : ... .. . ...
ROW 19 : ... .. . ... : ... .. . ... : ... .. . ... : ... .. . ... : ... .. . ...
ROW 1A : ... .. . ... : ... .. . ... : ... .. . ... : ... .. . ... : ... .. . ...
ROW 1B : ... .. . ... : ... .. . ... : ... .. . ... : ... .. . ... : ... .. . ...
ROW 1C : ... .. . ... : ... .. . ... : ... .. . ... : ... .. . ... : ... .. . ...
ROW 1D : ... .. . ... : ... .. . ... : ... .. . ... : ... .. . ... : ... .. . ...
ROW 1E : ... .. . ... : ... .. . ... : ... .. . ... : ... .. . ... : ... .. . ...
ROW 1F : ... .. . ... : ... .. . ... : ... .. . ... : ... .. . ... : ... .. . ...
ROW 20 : ... .. . ... : ... .. . ... : ... .. . ... : ... .. . ... : ... .. . ...
ROW 21 : ... .. . ... : ... .. . ... : ... .. . ... : ... .. . ... : ... .. . ...
ROW 22 : ... .. . ... : ... .. . ... : ... .. . ... : ... .. . ... : ... .. . ...
ROW 23 : ... .. . ... : ... .. . ... : ... .. . ... : ... .. . ... : ... .. . ...
ROW 24 : ... .. . ... : ... .. . ... : ... .. . ... : ... .. . ... : ... .. . ...
ROW 25 : ... .. . ... : ... .. . ... : ... .. . ... : ... .. . ... : ... .. . ...
ROW 26 : ... .. . ... : ... .. . ... : ... .. . ... : ... .. . ... : ... .. . ...
ROW 27 : ... .. . ... : ... .. . ... : ... .. . ... : ... .. . ... : ... .. . ...
ROW 28 : ... .. . ... : ... .. . ... : ... .. . ... : ... .. . ... : ... .. . ...
ROW 29 : ... .. . ... : ... .. . ... : ... .. . ... : ... .. . ... : ... .. . ...
ROW 2A : ... .. . ... : ... .. . ... : ... .. . ... : ... .. . ... : ... .. . ...
ROW 2B : ... .. . ... : ... .. . ... : ... .. . ... : ... .. . ... : ... .. . ...
ROW 2C : ... .. . ... : ... .. . ... : ... .. . ... : ... .. . ... : ... .. . ...
ROW 2D : ... .. . ... : ... .. . ... : ... .. . ... : ... .. . ... : ... .. . ...
ROW 2E : ... .. . ... : ... .. . ... : ... .. . ... : ... .. . ... : ... .. . ...
ROW 2F : ... .. . ... : ... .. . ... : ... .. . ... : ... .. . ... : ... .. . ...
ROW 30 : ... .. . ... : ... .. . ... : ... .. . ... : ... .. . ... : ... .. . ...
ROW 31 : ... .. . ... : ... .. . ... : ... .. . ... : ... .. . ... : ... .. . ...
ROW 32 : ... .. . ... : ... .. . ... : ... .. . ... : ... .. . ... : ... .. . ...
ROW 33 : ... .. . ... : ... .. . ... : ... .. . ... : ... .. . ... : ... .. . ...
ROW 34 : ... .. . ... : ... .. . ... : ... .. . ... : ... .. . ... : ... .. . ...
ROW 35 : ... .. . ... : ... .. . ... : ... .. . ... : ... .. . ... : ... .. . ...
ROW 36 : ... .. . ... : ... .. . ... : ... .. . ... : ... .. . ... : ... .. . ...
ROW 37 : ... .. . ... : ... .. . ... : ... .. . ... : ... .. . ... : ... .. . ...
ROW 38 : ... .. . ... : ... .. . ... : ... .. . ... : ... .. . ... : ... .. . ...
ROW 39 : ... .. . ... : ... .. . ... : ... .. . ... : ... .. . ... : ... .. . ...
ROW 3A : ... .. . ... : ... .. . ... : ... .. . ... : ... .. . ... : ... .. . ...
ROW 3B : ... .. . ... : ... .. . ... : ... .. . ... : ... .. . ... : ... .. . ...
ROW 3C : ... .. . ... : ... .. . ... : ... .. . ... : ... .. . ... : ... .. . ...
ROW 3D : ... .. . ... : ... .. . ... : ... .. . ... : ... .. . ... : ... .. . ...
ROW 3E : ... .. . ... : ... .. . ... : ... .. . ... : ... .. . ... : ... .. . ...
ROW 3F : ... .. . ... : ... .. . ... : ... .. . ... : ... .. . ... : ... .. . ...

TRACK  64   6 150 "sfx_slash"
COLUMNS : 1 1 1 1 1

ORDER 00 : 00 00 00 00 00

PATTERN 00
ROW 00 : ... .. . ... : ... .. . ... : ... .. . ... : 9-# 02 F ... : ... .. . ...
ROW 01 : ... .. . ... : ... .. . ... : ... .. . ... : 9-# 1C . ... : ... .. . ...
ROW 02 : ... .. . ... : ... .. . ... : ... .. . ... : ... .. . ... : ... .. . ...
ROW 03 : ... .. . ... : ... .. . ... : ... .. . ... : ... .. . ... : ... .. . ...
ROW 04 : ... .. . ... : ... .. . ... : ... .. . ... : ... .. . ... : ... .. . ...
ROW 05 : ... .. . ... : ... .. . ... : ... .. . ... : ... .. . ... : ... .. . ...
ROW 06 : ... .. . ... : ... .. . ... : ... .. . ... : ... .. . ... : ... .. . ...
ROW 07 : ... .. . ... : ... .. . ... : ... .. . ... : ... .. . ... : ... .. . ...
ROW 08 : ... .. . ... : ... .. . ... : ... .. . ... : ... .. . ... : ... .. . ...
ROW 09 : ... .. . ... : ... .. . ... : ... .. . ... : ... .. . ... : ... .. . ...
ROW 0A : ... .. . ... : ... .. . ... : ... .. . ... : ... .. . ... : ... .. . ...
ROW 0B : ... .. . ... : ... .. . ... : ... .. . ... : ... .. . ... : ... .. . ...
ROW 0C : ... .. . ... : ... .. . ... : ... .. . ... : ... .. . ... : ... .. . ...
ROW 0D : ... .. . ... : ... .. . ... : ... .. . ... : ... .. . ... : ... .. . ...
ROW 0E : ... .. . ... : ... .. . ... : ... .. . ... : ... .. . ... : ... .. . ...
ROW 0F : ... .. . ... : ... .. . ... : ... .. . ... : ... .. . ... : ... .. . ...
ROW 10 : ... .. . ... : ... .. . ... : ... .. . ... : ... .. . ... : ... .. . ...
ROW 11 : ... .. . ... : ... .. . ... : ... .. . ... : ... .. . ... : ... .. . ...
ROW 12 : ... .. . ... : ... .. . ... : ... .. . ... : ... .. . ... : ... .. . ...
ROW 13 : ... .. . ... : ... .. . ... : ... .. . ... : ... .. . ... : ... .. . ...
ROW 14 : ... .. . ... : ... .. . ... : ... .. . ... : ... .. . ... : ... .. . ...
ROW 15 : ... .. . ... : ... .. . ... : ... .. . ... : ... .. . ... : ... .. . ...
ROW 16 : ... .. . ... : ... .. . ... : ... .. . ... : ... .. . ... : ... .. . ...
ROW 17 : ... .. . ... : ... .. . ... : ... .. . ... : ... .. . ... : ... .. . ...
ROW 18 : ... .. . ... : ... .. . ... : ... .. . ... : ... .. . ... : ... .. . ...
ROW 19 : ... .. . ... : ... .. . ... : ... .. . ... : ... .. . ... : ... .. . ...
ROW 1A : ... .. . ... : ... .. . ... : ... .. . ... : ... .. . ... : ... .. . ...
ROW 1B : ... .. . ... : ... .. . ... : ... .. . ... : ... .. . ... : ... .. . ...
ROW 1C : ... .. . ... : ... .. . ... : ... .. . ... : ... .. . ... : ... .. . ...
ROW 1D : ... .. . ... : ... .. . ... : ... .. . ... : ... .. . ... : ... .. . ...
ROW 1E : ... .. . ... : ... .. . ... : ... .. . ... : ... .. . ... : ... .. . ...
ROW 1F : ... .. . ... : ... .. . ... : ... .. . ... : ... .. . ... : ... .. . ...
ROW 20 : ... .. . ... : ... .. . ... : ... .. . ... : ... .. . ... : ... .. . ...
ROW 21 : ... .. . ... : ... .. . ... : ... .. . ... : ... .. . ... : ... .. . ...
ROW 22 : ... .. . ... : ... .. . ... : ... .. . ... : ... .. . ... : ... .. . ...
ROW 23 : ... .. . ... : ... .. . ... : ... .. . ... : ... .. . ... : ... .. . ...
ROW 24 : ... .. . ... : ... .. . ... : ... .. . ... : ... .. . ... : ... .. . ...
ROW 25 : ... .. . ... : ... .. . ... : ... .. . ... : ... .. . ... : ... .. . ...
ROW 26 : ... .. . ... : ... .. . ... : ... .. . ... : ... .. . ... : ... .. . ...
ROW 27 : ... .. . ... : ... .. . ... : ... .. . ... : ... .. . ... : ... .. . ...
ROW 28 : ... .. . ... : ... .. . ... : ... .. . ... : ... .. . ... : ... .. . ...
ROW 29 : ... .. . ... : ... .. . ... : ... .. . ... : ... .. . ... : ... .. . ...
ROW 2A : ... .. . ... : ... .. . ... : ... .. . ... : ... .. . ... : ... .. . ...
ROW 2B : ... .. . ... : ... .. . ... : ... .. . ... : ... .. . ... : ... .. . ...
ROW 2C : ... .. . ... : ... .. . ... : ... .. . ... : ... .. . ... : ... .. . ...
ROW 2D : ... .. . ... : ... .. . ... : ... .. . ... : ... .. . ... : ... .. . ...
ROW 2E : ... .. . ... : ... .. . ... : ... .. . ... : ... .. . ... : ... .. . ...
ROW 2F : ... .. . ... : ... .. . ... : ... .. . ... : ... .. . ... : ... .. . ...
ROW 30 : ... .. . ... : ... .. . ... : ... .. . ... : ... .. . ... : ... .. . ...
ROW 31 : ... .. . ... : ... .. . ... : ... .. . ... : ... .. . ... : ... .. . ...
ROW 32 : ... .. . ... : ... .. . ... : ... .. . ... : ... .. . ... : ... .. . ...
ROW 33 : ... .. . ... : ... .. . ... : ... .. . ... : ... .. . ... : ... .. . ...
ROW 34 : ... .. . ... : ... .. . ... : ... .. . ... : ... .. . ... : ... .. . ...
ROW 35 : ... .. . ... : ... .. . ... : ... .. . ... : ... .. . ... : ... .. . ...
ROW 36 : ... .. . ... : ... .. . ... : ... .. . ... : ... .. . ... : ... .. . ...
ROW 37 : ... .. . ... : ... .. . ... : ... .. . ... : ... .. . ... : ... .. . ...
ROW 38 : ... .. . ... : ... .. . ... : ... .. . ... : ... .. . ... : ... .. . ...
ROW 39 : ... .. . ... : ... .. . ... : ... .. . ... : ... .. . ... : ... .. . ...
ROW 3A : ... .. . ... : ... .. . ... : ... .. . ... : ... .. . ... : ... .. . ...
ROW 3B : ... .. . ... : ... .. . ... : ... .. . ... : ... .. . ... : ... .. . ...
ROW 3C : ... .. . ... : ... .. . ... : ... .. . ... : ... .. . ... : ... .. . ...
ROW 3D : ... .. . ... : ... .. . ... : ... .. . ... : ... .. . ... : ... .. . ...
ROW 3E : ... .. . ... : ... .. . ... : ... .. . ... : ... .. . ... : ... .. . ...
ROW 3F : ... .. . ... : ... .. . ... : ... .. . ... : ... .. . ... : ... .. . ...

TRACK  64   6 150 "sfx_miss"
COLUMNS : 1 1 1 1 1

ORDER 00 : 00 00 00 00 00

PATTERN 00
ROW 00 : F#6 0F . ... : F-6 0F . ... : ... .. . ... : ... .. . ... : ... .. . ...
ROW 01 : C#5 0F . ... : C-5 0F . ... : ... .. . ... : ... .. . ... : ... .. . ...
ROW 02 : ... .. . ... : ... .. . ... : ... .. . ... : ... .. . ... : ... .. . ...
ROW 03 : C-4 03 . ... : C-4 03 . ... : ... .. . ... : ... .. . ... : ... .. . ...
ROW 04 : ... .. . ... : ... .. . ... : ... .. . ... : ... .. . ... : ... .. . ...
ROW 05 : ... .. . ... : ... .. . ... : ... .. . ... : ... .. . ... : ... .. . ...
ROW 06 : ... .. . ... : ... .. . ... : ... .. . ... : ... .. . ... : ... .. . ...
ROW 07 : ... .. . ... : ... .. . ... : ... .. . ... : ... .. . ... : ... .. . ...
ROW 08 : ... .. . ... : ... .. . ... : ... .. . ... : ... .. . ... : ... .. . ...
ROW 09 : ... .. . ... : ... .. . ... : ... .. . ... : ... .. . ... : ... .. . ...
ROW 0A : ... .. . ... : ... .. . ... : ... .. . ... : ... .. . ... : ... .. . ...
ROW 0B : ... .. . ... : ... .. . ... : ... .. . ... : ... .. . ... : ... .. . ...
ROW 0C : ... .. . ... : ... .. . ... : ... .. . ... : ... .. . ... : ... .. . ...
ROW 0D : ... .. . ... : ... .. . ... : ... .. . ... : ... .. . ... : ... .. . ...
ROW 0E : ... .. . ... : ... .. . ... : ... .. . ... : ... .. . ... : ... .. . ...
ROW 0F : ... .. . ... : ... .. . ... : ... .. . ... : ... .. . ... : ... .. . ...
ROW 10 : ... .. . ... : ... .. . ... : ... .. . ... : ... .. . ... : ... .. . ...
ROW 11 : ... .. . ... : ... .. . ... : ... .. . ... : ... .. . ... : ... .. . ...
ROW 12 : ... .. . ... : ... .. . ... : ... .. . ... : ... .. . ... : ... .. . ...
ROW 13 : ... .. . ... : ... .. . ... : ... .. . ... : ... .. . ... : ... .. . ...
ROW 14 : ... .. . ... : ... .. . ... : ... .. . ... : ... .. . ... : ... .. . ...
ROW 15 : ... .. . ... : ... .. . ... : ... .. . ... : ... .. . ... : ... .. . ...
ROW 16 : ... .. . ... : ... .. . ... : ... .. . ... : ... .. . ... : ... .. . ...
ROW 17 : ... .. . ... : ... .. . ... : ... .. . ... : ... .. . ... : ... .. . ...
ROW 18 : ... .. . ... : ... .. . ... : ... .. . ... : ... .. . ... : ... .. . ...
ROW 19 : ... .. . ... : ... .. . ... : ... .. . ... : ... .. . ... : ... .. . ...
ROW 1A : ... .. . ... : ... .. . ... : ... .. . ... : ... .. . ... : ... .. . ...
ROW 1B : ... .. . ... : ... .. . ... : ... .. . ... : ... .. . ... : ... .. . ...
ROW 1C : ... .. . ... : ... .. . ... : ... .. . ... : ... .. . ... : ... .. . ...
ROW 1D : ... .. . ... : ... .. . ... : ... .. . ... : ... .. . ... : ... .. . ...
ROW 1E : ... .. . ... : ... .. . ... : ... .. . ... : ... .. . ... : ... .. . ...
ROW 1F : ... .. . ... : ... .. . ... : ... .. . ... : ... .. . ... : ... .. . ...
ROW 20 : ... .. . ... : ... .. . ... : ... .. . ... : ... .. . ... : ... .. . ...
ROW 21 : ... .. . ... : ... .. . ... : ... .. . ... : ... .. . ... : ... .. . ...
ROW 22 : ... .. . ... : ... .. . ... : ... .. . ... : ... .. . ... : ... .. . ...
ROW 23 : ... .. . ... : ... .. . ... : ... .. . ... : ... .. . ... : ... .. . ...
ROW 24 : ... .. . ... : ... .. . ... : ... .. . ... : ... .. . ... : ... .. . ...
ROW 25 : ... .. . ... : ... .. . ... : ... .. . ... : ... .. . ... : ... .. . ...
ROW 26 : ... .. . ... : ... .. . ... : ... .. . ... : ... .. . ... : ... .. . ...
ROW 27 : ... .. . ... : ... .. . ... : ... .. . ... : ... .. . ... : ... .. . ...
ROW 28 : ... .. . ... : ... .. . ... : ... .. . ... : ... .. . ... : ... .. . ...
ROW 29 : ... .. . ... : ... .. . ... : ... .. . ... : ... .. . ... : ... .. . ...
ROW 2A : ... .. . ... : ... .. . ... : ... .. . ... : ... .. . ... : ... .. . ...
ROW 2B : ... .. . ... : ... .. . ... : ... .. . ... : ... .. . ... : ... .. . ...
ROW 2C : ... .. . ... : ... .. . ... : ... .. . ... : ... .. . ... : ... .. . ...
ROW 2D : ... .. . ... : ... .. . ... : ... .. . ... : ... .. . ... : ... .. . ...
ROW 2E : ... .. . ... : ... .. . ... : ... .. . ... : ... .. . ... : ... .. . ...
ROW 2F : ... .. . ... : ... .. . ... : ... .. . ... : ... .. . ... : ... .. . ...
ROW 30 : ... .. . ... : ... .. . ... : ... .. . ... : ... .. . ... : ... .. . ...
ROW 31 : ... .. . ... : ... .. . ... : ... .. . ... : ... .. . ... : ... .. . ...
ROW 32 : ... .. . ... : ... .. . ... : ... .. . ... : ... .. . ... : ... .. . ...
ROW 33 : ... .. . ... : ... .. . ... : ... .. . ... : ... .. . ... : ... .. . ...
ROW 34 : ... .. . ... : ... .. . ... : ... .. . ... : ... .. . ... : ... .. . ...
ROW 35 : ... .. . ... : ... .. . ... : ... .. . ... : ... .. . ... : ... .. . ...
ROW 36 : ... .. . ... : ... .. . ... : ... .. . ... : ... .. . ... : ... .. . ...
ROW 37 : ... .. . ... : ... .. . ... : ... .. . ... : ... .. . ... : ... .. . ...
ROW 38 : ... .. . ... : ... .. . ... : ... .. . ... : ... .. . ... : ... .. . ...
ROW 39 : ... .. . ... : ... .. . ... : ... .. . ... : ... .. . ... : ... .. . ...
ROW 3A : ... .. . ... : ... .. . ... : ... .. . ... : ... .. . ... : ... .. . ...
ROW 3B : ... .. . ... : ... .. . ... : ... .. . ... : ... .. . ... : ... .. . ...
ROW 3C : ... .. . ... : ... .. . ... : ... .. . ... : ... .. . ... : ... .. . ...
ROW 3D : ... .. . ... : ... .. . ... : ... .. . ... : ... .. . ... : ... .. . ...
ROW 3E : ... .. . ... : ... .. . ... : ... .. . ... : ... .. . ... : ... .. . ...
ROW 3F : ... .. . ... : ... .. . ... : ... .. . ... : ... .. . ... : ... .. . ...

TRACK  64   6 150 "sfx_secret"
COLUMNS : 1 1 1 1 1

ORDER 00 : 00 00 00 00 00

PATTERN 00
ROW 00 : D#5 09 . ... : ... .. . ... : ... .. . ... : ... .. . ... : ... .. . ...
ROW 01 : C#5 09 . ... : ... .. . ... : ... .. . ... : ... .. . ... : ... .. . ...
ROW 02 : C-5 09 . ... : ... .. . ... : ... .. . ... : ... .. . ... : ... .. . ...
ROW 03 : A-4 09 . ... : ... .. . ... : ... .. . ... : ... .. . ... : ... .. . ...
ROW 04 : ... .. . ... : ... .. . ... : ... .. . ... : ... .. . ... : ... .. . ...
ROW 05 : ... .. . ... : ... .. . ... : ... .. . ... : ... .. . ... : ... .. . ...
ROW 06 : ... .. . ... : ... .. . ... : ... .. . ... : ... .. . ... : ... .. . ...
ROW 07 : ... .. . ... : ... .. . ... : ... .. . ... : ... .. . ... : ... .. . ...
ROW 08 : G-4 1C . ... : ... .. . ... : ... .. . ... : ... .. . ... : ... .. . ...
ROW 09 : ... .. . ... : ... .. . ... : ... .. . ... : ... .. . ... : ... .. . ...
ROW 0A : ... .. . ... : ... .. . ... : ... .. . ... : ... .. . ... : ... .. . ...
ROW 0B : ... .. . ... : ... .. . ... : ... .. . ... : ... .. . ... : ... .. . ...
ROW 0C : ... .. . ... : ... .. . ... : ... .. . ... : ... .. . ... : ... .. . ...
ROW 0D : ... .. . ... : ... .. . ... : ... .. . ... : ... .. . ... : ... .. . ...
ROW 0E : ... .. . ... : ... .. . ... : ... .. . ... : ... .. . ... : ... .. . ...
ROW 0F : ... .. . ... : ... .. . ... : ... .. . ... : ... .. . ... : ... .. . ...
ROW 10 : ... .. . ... : ... .. . ... : ... .. . ... : ... .. . ... : ... .. . ...
ROW 11 : ... .. . ... : ... .. . ... : ... .. . ... : ... .. . ... : ... .. . ...
ROW 12 : ... .. . ... : ... .. . ... : ... .. . ... : ... .. . ... : ... .. . ...
ROW 13 : ... .. . ... : ... .. . ... : ... .. . ... : ... .. . ... : ... .. . ...
ROW 14 : ... .. . ... : ... .. . ... : ... .. . ... : ... .. . ... : ... .. . ...
ROW 15 : ... .. . ... : ... .. . ... : ... .. . ... : ... .. . ... : ... .. . ...
ROW 16 : ... .. . ... : ... .. . ... : ... .. . ... : ... .. . ... : ... .. . ...
ROW 17 : ... .. . ... : ... .. . ... : ... .. . ... : ... .. . ... : ... .. . ...
ROW 18 : ... .. . ... : ... .. . ... : ... .. . ... : ... .. . ... : ... .. . ...
ROW 19 : ... .. . ... : ... .. . ... : ... .. . ... : ... .. . ... : ... .. . ...
ROW 1A : ... .. . ... : ... .. . ... : ... .. . ... : ... .. . ... : ... .. . ...
ROW 1B : ... .. . ... : ... .. . ... : ... .. . ... : ... .. . ... : ... .. . ...
ROW 1C : ... .. . ... : ... .. . ... : ... .. . ... : ... .. . ... : ... .. . ...
ROW 1D : ... .. . ... : ... .. . ... : ... .. . ... : ... .. . ... : ... .. . ...
ROW 1E : ... .. . ... : ... .. . ... : ... .. . ... : ... .. . ... : ... .. . ...
ROW 1F : ... .. . ... : ... .. . ... : ... .. . ... : ... .. . ... : ... .. . ...
ROW 20 : ... .. . ... : ... .. . ... : ... .. . ... : ... .. . ... : ... .. . ...
ROW 21 : ... .. . ... : ... .. . ... : ... .. . ... : ... .. . ... : ... .. . ...
ROW 22 : ... .. . ... : ... .. . ... : ... .. . ... : ... .. . ... : ... .. . ...
ROW 23 : ... .. . ... : ... .. . ... : ... .. . ... : ... .. . ... : ... .. . ...
ROW 24 : ... .. . ... : ... .. . ... : ... .. . ... : ... .. . ... : ... .. . ...
ROW 25 : ... .. . ... : ... .. . ... : ... .. . ... : ... .. . ... : ... .. . ...
ROW 26 : ... .. . ... : ... .. . ... : ... .. . ... : ... .. . ... : ... .. . ...
ROW 27 : ... .. . ... : ... .. . ... : ... .. . ... : ... .. . ... : ... .. . ...
ROW 28 : ... .. . ... : ... .. . ... : ... .. . ... : ... .. . ... : ... .. . ...
ROW 29 : ... .. . ... : ... .. . ... : ... .. . ... : ... .. . ... : ... .. . ...
ROW 2A : ... .. . ... : ... .. . ... : ... .. . ... : ... .. . ... : ... .. . ...
ROW 2B : ... .. . ... : ... .. . ... : ... .. . ... : ... .. . ... : ... .. . ...
ROW 2C : ... .. . ... : ... .. . ... : ... .. . ... : ... .. . ... : ... .. . ...
ROW 2D : ... .. . ... : ... .. . ... : ... .. . ... : ... .. . ... : ... .. . ...
ROW 2E : ... .. . ... : ... .. . ... : ... .. . ... : ... .. . ... : ... .. . ...
ROW 2F : ... .. . ... : ... .. . ... : ... .. . ... : ... .. . ... : ... .. . ...
ROW 30 : ... .. . ... : ... .. . ... : ... .. . ... : ... .. . ... : ... .. . ...
ROW 31 : ... .. . ... : ... .. . ... : ... .. . ... : ... .. . ... : ... .. . ...
ROW 32 : ... .. . ... : ... .. . ... : ... .. . ... : ... .. . ... : ... .. . ...
ROW 33 : ... .. . ... : ... .. . ... : ... .. . ... : ... .. . ... : ... .. . ...
ROW 34 : ... .. . ... : ... .. . ... : ... .. . ... : ... .. . ... : ... .. . ...
ROW 35 : ... .. . ... : ... .. . ... : ... .. . ... : ... .. . ... : ... .. . ...
ROW 36 : ... .. . ... : ... .. . ... : ... .. . ... : ... .. . ... : ... .. . ...
ROW 37 : ... .. . ... : ... .. . ... : ... .. . ... : ... .. . ... : ... .. . ...
ROW 38 : ... .. . ... : ... .. . ... : ... .. . ... : ... .. . ... : ... .. . ...
ROW 39 : ... .. . ... : ... .. . ... : ... .. . ... : ... .. . ... : ... .. . ...
ROW 3A : ... .. . ... : ... .. . ... : ... .. . ... : ... .. . ... : ... .. . ...
ROW 3B : ... .. . ... : ... .. . ... : ... .. . ... : ... .. . ... : ... .. . ...
ROW 3C : ... .. . ... : ... .. . ... : ... .. . ... : ... .. . ... : ... .. . ...
ROW 3D : ... .. . ... : ... .. . ... : ... .. . ... : ... .. . ... : ... .. . ...
ROW 3E : ... .. . ... : ... .. . ... : ... .. . ... : ... .. . ... : ... .. . ...
ROW 3F : ... .. . ... : ... .. . ... : ... .. . ... : ... .. . ... : ... .. . ...

# End of export
